<svg width="566" height="693" viewBox="0 0 566 693" fill="none" xmlns="http://www.w3.org/2000/svg">
<path d="M313.569 691.369C303.527 692.447 293.328 693 283 693C272.672 693 262.473 692.447 252.431 691.369C252.345 690.431 252.3 689.481 252.3 688.52C252.3 671.572 266.045 657.833 283 657.833C299.955 657.833 313.699 671.572 313.699 688.52C313.699 689.481 313.655 690.431 313.569 691.369Z" fill="#2B3145"/>
<path d="M320.408 690.55C320.444 689.878 320.462 689.201 320.462 688.52C320.462 667.838 303.69 651.072 283 651.072C262.31 651.072 245.538 667.838 245.538 688.52C245.538 689.201 245.556 689.878 245.592 690.55C231.9 688.743 218.517 685.957 205.515 682.266C207.082 662.594 215.979 644.988 229.473 632.174C231.915 629.856 234.507 627.694 237.234 625.705C250.073 616.343 265.891 610.817 283 610.817C300.108 610.817 315.926 616.342 328.764 625.704C331.368 647.096 337.768 667.317 347.27 685.673C338.467 687.717 329.506 689.35 320.408 690.55Z" fill="#2B3145"/>
<path d="M8.68975 479.95C5.63294 467.916 3.34777 455.574 1.88996 442.981C20.1627 436.337 39.8862 432.714 60.4563 432.714C126.577 432.714 183.95 470.156 212.513 524.986C201.106 529.906 190.315 535.983 180.29 543.07C158.073 499.479 112.753 469.623 60.4561 469.623C42.1101 469.623 24.6225 473.297 8.68975 479.95Z" fill="#2B3145"/>
<path d="M25.2831 527.156C19.348 514.118 14.3738 500.552 10.4511 486.546C25.8076 480.003 42.7089 476.383 60.4561 476.383C110.521 476.383 153.854 505.195 174.765 547.136C162.303 556.684 151.14 567.84 141.586 580.295C131.344 545.174 98.8981 519.512 60.4561 519.512C47.9045 519.512 35.9921 522.248 25.2831 527.156Z" fill="#2B3145"/>
<path d="M112.753 636.107C118.154 618.557 126.196 602.164 136.415 587.391C128.814 552.445 97.693 526.273 60.4561 526.273C48.9328 526.273 37.9951 528.779 28.1589 533.276C34.0974 545.532 40.8947 557.294 48.4724 568.485C52.235 567.216 56.2652 566.528 60.4561 566.528C81.1461 566.528 97.9186 583.294 97.9186 603.975C97.9186 609.974 96.5078 615.643 93.9997 620.669C100.023 626.075 106.28 631.227 112.753 636.107Z" fill="#2B3145"/>
<path d="M118.54 640.356C123.023 625.035 129.59 610.604 137.914 597.39C139.731 594.506 141.632 591.679 143.613 588.914C153.214 575.512 164.702 563.553 177.688 553.423C179.513 552 181.367 550.613 183.249 549.263C193.255 542.089 204.067 535.965 215.522 531.053C217.594 530.165 219.687 529.316 221.8 528.508C240.806 521.24 261.438 517.259 283 517.259C304.562 517.259 325.193 521.24 344.198 528.508C339.012 539.569 334.93 551.251 332.094 563.412C316.886 557.444 300.326 554.167 283 554.167C265.673 554.167 249.113 557.445 233.904 563.413C231.768 564.251 229.659 565.142 227.577 566.085C215.25 571.67 203.915 579.061 193.912 587.919C191.779 589.808 189.706 591.764 187.697 593.783C169.774 611.798 156.929 634.867 151.487 660.664C140.018 654.636 129.013 647.844 118.54 640.356Z" fill="#2B3145"/>
<path d="M157.741 663.852C162.257 640.807 172.979 619.984 188.096 603.195C190.198 600.86 192.386 598.603 194.653 596.429C204.668 586.826 216.247 578.839 228.969 572.889C231.06 571.911 233.181 570.988 235.332 570.122C250.06 564.192 266.148 560.928 283 560.928C299.851 560.928 315.939 564.192 330.667 570.122C328.556 581.082 327.451 592.399 327.451 603.975C327.451 608.344 327.608 612.677 327.918 616.967C314.906 608.788 299.506 604.057 283 604.057C266.494 604.057 251.093 608.788 238.081 616.968C235.576 618.543 233.159 620.245 230.84 622.066C213.176 635.94 201.179 656.699 198.899 680.299C184.665 675.877 170.913 670.362 157.741 663.852Z" fill="#2B3145"/>
<path d="M88.7703 615.856C90.3066 612.202 91.1557 608.188 91.1557 603.975C91.1557 587.027 77.411 573.288 60.4561 573.288C57.7159 573.288 55.0596 573.647 52.5315 574.32C63.248 589.322 75.3939 603.234 88.7703 615.856Z" fill="#2B3145"/>
<path d="M564.11 442.982C545.837 436.338 526.113 432.714 505.542 432.714C439.421 432.714 382.049 470.155 353.485 524.985C352.444 526.985 351.44 529.008 350.476 531.053C345.253 542.131 341.183 553.86 338.421 566.085C337.913 568.336 337.448 570.604 337.029 572.888C335.18 582.97 334.214 593.359 334.214 603.975C334.214 610.085 334.534 616.12 335.158 622.065C335.515 625.465 335.972 628.835 336.525 632.172C339.581 650.614 345.585 668.062 354.037 684.014C366.274 680.852 378.19 676.892 389.726 672.193C377.914 652.198 371.137 628.878 371.137 603.975C371.137 601.442 371.207 598.926 371.345 596.427C371.504 593.566 371.752 590.728 372.087 587.918C373.709 574.303 377.367 561.314 382.75 549.262C383.685 547.169 384.672 545.104 385.709 543.069C407.926 499.478 453.246 469.623 505.542 469.623C523.889 469.623 541.377 473.297 557.31 479.95C560.367 467.917 562.652 455.575 564.11 442.982Z" fill="#2B3145"/>
<path d="M555.549 486.547C540.192 480.004 523.29 476.383 505.542 476.383C455.478 476.383 412.145 505.194 391.233 547.135C390.204 549.2 389.229 551.296 388.31 553.422C382.891 565.961 379.427 579.542 378.301 593.781C378.055 596.888 377.921 600.026 377.902 603.192C377.9 603.453 377.899 603.714 377.899 603.975C377.899 627.949 384.514 650.379 396.018 669.54C409.313 663.745 422.076 656.959 434.213 649.275C425.876 636.184 421.046 620.644 421.046 603.975C421.046 598.834 421.505 593.8 422.386 588.912C422.913 585.983 423.591 583.108 424.412 580.293C434.655 545.173 467.101 519.512 505.542 519.512C518.094 519.512 530.007 522.248 540.717 527.156C546.652 514.119 551.626 500.552 555.549 486.547Z" fill="#2B3145"/>
<path d="M537.841 533.277C528.004 528.779 517.066 526.273 505.542 526.273C468.306 526.273 437.185 552.444 429.584 587.389C428.874 590.65 428.37 593.987 428.084 597.387C427.902 599.559 427.809 601.756 427.809 603.975C427.809 619.284 432.238 633.559 439.884 645.589C451.189 638.048 461.921 629.715 471.999 620.67C469.491 615.644 468.079 609.974 468.079 603.975C468.079 583.294 484.852 566.528 505.542 566.528C509.733 566.528 513.764 567.216 517.527 568.485C525.105 557.294 531.902 545.532 537.841 533.277Z" fill="#2B3145"/>
<path d="M513.468 574.321C510.94 573.647 508.283 573.288 505.542 573.288C488.587 573.288 474.842 587.027 474.842 603.975C474.842 608.188 475.692 612.203 477.228 615.857C490.605 603.235 502.751 589.323 513.468 574.321Z" fill="#2B3145"/>
<path d="M275.293 26.0091L214.71 71.7981V76.8073H231.414V163.633H211.369L221.229 180.06L216.753 218.734L314.043 180.33H344.999L355.022 163.633H334.977V76.8073H351.681V71.7981L291.097 26.0091L288.206 0H278.184L275.293 26.0091Z" fill="#2B3145"/>
<path d="M358.861 252.128L206.316 308.899L195.687 400.734L368.516 332.275L358.861 252.128Z" fill="#2B3145"/>
<path d="M195.313 487.697C204.436 498.26 212.338 509.906 218.8 522.417C238.717 514.719 260.366 510.498 283 510.498C303.133 510.498 322.486 513.838 340.534 519.993L350.717 515.937C359.919 499.802 371.573 485.245 385.17 472.773L378.473 414.926L195.313 487.697Z" fill="#2B3145"/>
<path d="M22.6625 429.97C22.169 423.415 21.9179 416.792 21.9179 410.111C21.9179 294.76 96.783 196.888 200.593 162.398C171.786 166.605 143.684 172.986 116.461 181.367C45.8716 232.808 0 316.104 0 410.111C0 418.857 0.397072 427.511 1.17419 436.054C8.14801 433.594 15.321 431.556 22.6625 429.97Z" fill="#2B3145"/>
<path d="M564.826 436.055C565.603 427.511 566 418.857 566 410.111C566 316.104 520.128 232.808 449.539 181.367C422.316 172.986 394.214 166.605 365.407 162.398C469.217 196.888 544.082 294.76 544.082 410.111C544.082 416.792 543.831 423.415 543.338 429.971C550.679 431.556 557.852 433.595 564.826 436.055Z" fill="#2B3145"/>
<path d="M77.5203 67.5536L190.7 95.1742V107.721L77.5203 67.5536Z" fill="#2B3145"/>
<path d="M9.94 118.675L190.7 113.432V125.978L9.94 118.675Z" fill="#2B3145"/>
<path d="M190.7 144.236L77.5203 171.857L190.7 131.69V144.236Z" fill="#2B3145"/>
<path d="M556.06 118.675L375.3 113.432V125.978L556.06 118.675Z" fill="#2B3145"/>
<path d="M375.3 144.236L488.48 171.857L375.3 131.69V144.236Z" fill="#2B3145"/>
<path d="M375.3 95.1742L488.48 67.5536L375.3 107.721V95.1742Z" fill="#2B3145"/>
<path d="M350.717 515.937L340.534 519.993L346.973 522.628L350.717 515.937Z" fill="#2B3145"/>
</svg>
